<?xml version="1.0" encoding="UTF-8"?>
<svg id="Layer_2" data-name="Layer 2" xmlns="http://www.w3.org/2000/svg" xmlns:xlink="http://www.w3.org/1999/xlink" viewBox="0 0 113.9 107.86">
  <defs>
    <style>
      .cls-1 {
        fill: none;
      }

      .cls-1, .cls-2 {
        stroke-width: 0px;
      }

      .cls-3 {
        clip-path: url(#clippath-1);
      }

      .cls-4 {
        clip-path: url(#clippath);
      }

      .cls-2 {
        fill: #5f696f;
      }
    </style>
    <clipPath id="clippath">
      <rect class="cls-1" width="113.9" height="107.86"/>
    </clipPath>
    <clipPath id="clippath-1">
      <rect class="cls-1" width="113.9" height="107.86"/>
    </clipPath>
  </defs>
  <g id="Layer_1-2" data-name="Layer 1">
    <path class="cls-2" d="M32.4,16.93L15.23,51.87h3.46l4.45-9.06h22.53l4.5,9.06h3.62l-17.62-34.94h-3.76ZM44.28,40.05h-19.81l9.81-20,10,20Z"/>
    <g class="cls-4">
      <path class="cls-2" d="M89.62,41.04c-.45.84-1.25,1.95-2.38,3.3-1.11,1.34-2.71,2.55-4.76,3.64-2.04,1.08-4.68,1.65-7.91,1.72-3.39-.03-6.29-.75-8.7-2.14-2.4-1.39-4.23-3.22-5.51-5.52-1.29-2.28-1.92-4.79-1.93-7.55.02-3.05.73-5.72,2.1-8.05,1.37-2.33,3.26-4.15,5.67-5.47,2.42-1.32,5.2-1.99,8.37-2.02,2.34-.01,4.6.4,6.74,1.24,2.17.85,4.01,2.2,5.54,4,.48.58.86,1.09,1.13,1.51.29.43.57.88.85,1.36l2.82-1.76c-.6-1.07-1.34-2.1-2.42-3.35-1.07-1.27-2.58-2.47-4.56-3.6-1.47-.8-3.07-1.41-4.8-1.86-1.75-.44-3.58-.66-5.49-.66-3.71.03-7.06.83-10,2.41-2.95,1.59-5.29,3.75-7,6.51-1.72,2.77-2.59,5.92-2.64,9.49-.02,2.86.65,5.7,1.99,8.52,1.34,2.82,3.46,5.17,6.35,7.06,2.9,1.88,6.66,2.86,11.3,2.94,2.85.04,5.67-.46,8.44-1.5,2.76-1.03,5.26-2.84,7.5-5.42.54-.64.99-1.23,1.34-1.76.36-.54.69-1.07,1-1.62l-3.02-1.42Z"/>
      <path class="cls-2" d="M29.29,65.74c0-1.48.5-2.67,1.48-3.57.98-.9,2.33-1.34,4-1.34s3.02.45,4.02,1.34c.98.9,1.47,2.09,1.47,3.57s-.49,2.65-1.47,3.55c-.99.9-2.33,1.35-4.02,1.35s-3.02-.45-4-1.35c-.99-.9-1.48-2.09-1.48-3.55M30.99,65.77c0,1.05.3,1.89.91,2.57.69.75,1.64,1.12,2.88,1.12s2.2-.37,2.88-1.12c.62-.68.92-1.52.92-2.57s-.3-1.91-.92-2.58c-.68-.74-1.64-1.1-2.88-1.1s-2.18.36-2.88,1.1c-.61.66-.91,1.53-.91,2.58"/>
      <path class="cls-2" d="M92.39,63.75l-1.45.07c-.04-.62-.32-1.09-.86-1.42-.48-.31-1.12-.45-1.91-.45-.61,0-1.15.08-1.57.27-.56.22-.82.57-.82,1.05,0,.61.59,1.06,1.76,1.33,1.08.24,2.18.48,3.28.71,1.16.44,1.75,1.18,1.75,2.23,0,.88-.43,1.75-1.29,2.26-.77.45-1.71.67-2.82.67-1.37,0-2.46-.22-3.26-.7-.9-.53-1.4-1.51-1.48-2.58l1.53-.11c.07,1.5,1.12,2.26,3.14,2.26.74,0,1.35-.13,1.83-.42.54-.31.81-.76.81-1.35,0-.66-.58-1.13-1.75-1.4-1.09-.25-2.18-.45-3.28-.69-1.17-.38-1.75-1.05-1.75-1.98,0-.8.4-1.62,1.21-2.08.73-.42,1.6-.62,2.63-.62,1.16,0,2.12.22,2.86.65.83.48,1.31,1.37,1.44,2.28"/>
    </g>
    <polygon class="cls-2" points="23.11 61.12 24.72 61.12 24.72 70.43 23.03 70.43 23.03 66.17 16.93 66.17 16.87 70.43 15.25 70.43 15.25 61.06 16.91 61.06 16.91 64.87 23.11 64.87 23.11 61.12"/>
    <polygon class="cls-2" points="44.84 61.12 53.57 61.12 53.57 62.34 50.06 62.34 50.06 70.43 48.49 70.43 48.45 62.34 44.83 62.34 44.84 61.12"/>
    <polygon class="cls-2" points="58.14 61.12 66.68 61.12 66.68 62.34 59.52 62.34 59.52 64.87 66.09 64.87 66.09 66.24 59.56 66.24 59.56 69.06 67.06 69.06 67.06 70.43 58.14 70.43 58.14 61.12"/>
    <polygon class="cls-2" points="71.63 61.12 73.15 61.12 73.15 69.11 79.16 69.11 79.16 70.43 71.63 70.43 71.63 61.12"/>
    <path class="cls-2" d="M1.87,86.92h104.12v19.08H1.87v-19.08ZM1.87,1.87h104.12v83.4H1.87V1.87ZM0,107.86h107.86V0H0v107.86Z"/>
    <g class="cls-3">
      <path class="cls-2" d="M17.64,91.67c.04-.22.12-.34.23-.34s.17.06.35.41l3.52,7.27,3.51-7.36c.1-.2.17-.31.28-.31s.19.13.24.41l1.17,7.96c.12.81.24,1.19.64,1.31.37.11.63.13.8.13.1,0,.19,0,.19.09,0,.1-.15.14-.33.14-.31,0-2.1-.03-2.62-.08-.3-.02-.37-.06-.37-.14,0-.06.05-.1.14-.13.07-.03.12-.21.06-.56l-.78-5.67h-.04l-2.81,5.85c-.3.6-.37.73-.48.73s-.25-.27-.44-.64c-.31-.61-1.34-2.57-1.49-2.93-.11-.27-.89-1.9-1.34-2.86h-.05l-.66,5.13c-.03.22-.05.4-.05.6,0,.25.17.36.39.42.24.04.41.06.54.06.11,0,.19.02.19.09,0,.11-.11.14-.3.14-.55,0-1.12-.03-1.36-.03s-.87.03-1.28.03c-.12,0-.23-.03-.23-.14,0-.06.07-.09.2-.09.12,0,.2,0,.39-.05.37-.07.47-.57.54-1.01l1.27-8.41Z"/>
      <path class="cls-2" d="M31.25,98c-.05,0-.08.03-.1.1l-.7,1.84c-.13.32-.18.64-.18.78,0,.24.1.41.51.41h.19c.16,0,.19.02.19.09,0,.11-.07.13-.21.13-.42,0-.97-.03-1.37-.03-.15,0-.85.03-1.52.03-.17,0-.25-.03-.25-.13,0-.07.06-.09.16-.09s.29-.02.4-.03c.59-.08.83-.52,1.08-1.16l3.24-8.1c.16-.38.23-.52.37-.52.1,0,.18.11.32.41.31.7,2.38,5.97,3.2,7.93.49,1.16.86,1.34,1.14,1.4.19.04.38.06.53.06.11,0,.17,0,.17.09,0,.11-.12.13-.59.13s-1.42,0-2.45-.03c-.23,0-.38,0-.38-.11,0-.07.05-.09.17-.11.09-.03.19-.14.12-.29l-1.03-2.74c-.03-.06-.07-.08-.14-.08h-2.88ZM33.9,97.35c.06,0,.08-.03.06-.07l-1.15-3.19s-.02-.11-.07-.11c-.04,0-.07.07-.08.11l-1.19,3.18s0,.08.05.08h2.38Z"/>
      <path class="cls-2" d="M39.77,95.36c0-1.96,0-2.32-.02-2.73-.03-.45-.14-.66-.57-.74-.1-.03-.31-.03-.5-.03-.15,0-.22-.03-.22-.11,0-.1.1-.13.28-.13.69,0,1.5.04,1.77.04.45,0,1.42-.04,1.82-.04.81,0,1.68.08,2.38.56.36.24.87.9.87,1.77,0,.95-.4,1.82-1.69,2.89,1.13,1.44,2.03,2.58,2.79,3.39.72.76,1.26.84,1.46.87.14.03.26.05.36.05.09,0,.15.04.15.09,0,.11-.09.13-.24.13h-1.23c-.72,0-1.05-.06-1.38-.24-.56-.29-1.04-.9-1.76-1.89-.51-.71-1.11-1.58-1.28-1.77-.06-.08-.14-.1-.23-.1h-1.13c-.07-.01-.09,0-.09.08v.18c0,1.2,0,2.22.06,2.76.04.36.12.66.5.7.2.03.48.06.64.06.1,0,.15.04.15.09,0,.1-.09.13-.26.13-.75,0-1.7-.03-1.89-.03-.24,0-1.06.03-1.57.03-.18,0-.26-.03-.26-.13,0-.05.05-.09.21-.09.19,0,.34-.03.46-.06.26-.05.31-.34.38-.7.06-.54.06-1.56.06-2.75v-2.26ZM41.3,96.38c0,.13.02.18.1.22.27.1.67.13.99.13.52,0,.68-.06.92-.23.39-.28.75-.87.75-1.93,0-1.83-1.21-2.35-1.97-2.35-.33,0-.56,0-.69.05-.09.03-.1.07-.1.18v3.93Z"/>
      <path class="cls-2" d="M49.52,95.36c0-1.96,0-2.32-.03-2.73-.02-.45-.12-.66-.55-.74-.1-.03-.33-.03-.51-.03-.14,0-.22-.03-.22-.11,0-.1.1-.13.29-.13.68,0,1.49.04,1.76.04.43,0,1.42-.04,1.82-.04.8,0,1.68.08,2.37.56.37.24.87.9.87,1.77,0,.95-.38,1.82-1.7,2.89,1.15,1.44,2.04,2.58,2.81,3.39.72.76,1.25.84,1.44.87.15.03.26.05.36.05s.17.04.17.09c0,.11-.09.13-.25.13h-1.22c-.73,0-1.05-.06-1.38-.24-.55-.29-1.05-.9-1.76-1.89-.52-.71-1.12-1.58-1.27-1.77-.07-.08-.15-.1-.24-.1h-1.12c-.05-.01-.1,0-.1.08v.18c0,1.2,0,2.22.06,2.76.05.36.12.66.51.7.19.03.49.06.64.06.1,0,.16.04.16.09,0,.1-.09.13-.26.13-.75,0-1.71-.03-1.9-.03-.24,0-1.05.03-1.57.03-.16,0-.25-.03-.25-.13,0-.05.04-.09.2-.09.2,0,.35-.03.46-.06.25-.05.32-.34.37-.7.07-.54.07-1.56.07-2.75v-2.26ZM51.03,96.38c0,.13.03.18.12.22.26.1.65.13.98.13.52,0,.68-.06.92-.23.38-.28.76-.87.76-1.93,0-1.83-1.22-2.35-1.97-2.35-.33,0-.55,0-.68.05-.09.03-.12.07-.12.18v3.93Z"/>
      <path class="cls-2" d="M59.26,95.36c0-1.96,0-2.32-.03-2.73-.03-.45-.16-.66-.44-.73-.14-.04-.31-.05-.46-.05-.13,0-.21-.03-.21-.13,0-.08.11-.11.33-.11.48,0,1.29.04,1.67.04.33,0,1.08-.04,1.57-.04.17,0,.27.03.27.11,0,.1-.08.13-.2.13-.13,0-.24,0-.39.03-.36.07-.45.29-.48.74-.04.41-.04.77-.04,2.73v2.26c0,1.26,0,2.28.06,2.83.03.34.12.58.51.63.19.03.46.06.66.06.15,0,.21.04.21.09,0,.1-.1.13-.25.13-.85,0-1.65-.03-2.01-.03-.3,0-1.11.03-1.62.03-.17,0-.26-.03-.26-.13,0-.05.05-.09.21-.09.19,0,.35-.03.46-.06.26-.05.33-.28.38-.64.07-.54.07-1.56.07-2.82v-2.26Z"/>
      <path class="cls-2" d="M63.55,96.5c0-2.21,1.47-5.06,5.33-5.06,3.22,0,5.22,1.87,5.22,4.82s-2.07,5.29-5.35,5.29c-3.7,0-5.2-2.79-5.2-5.06M72.28,96.74c0-2.89-1.66-4.69-3.78-4.69-1.48,0-3.17.83-3.17,4.04,0,2.68,1.49,4.81,3.96,4.81.91,0,2.99-.45,2.99-4.16"/>
      <path class="cls-2" d="M78.39,92.34l-1.92.05c-.75.03-1.05.09-1.26.38-.12.2-.18.35-.21.45-.04.11-.07.15-.14.15-.1,0-.12-.06-.12-.21,0-.19.24-1.38.27-1.47.04-.17.08-.24.16-.24s.22.13.54.16c.38.03.87.06,1.29.06h5.12c.41,0,.69-.04.89-.06.19-.05.3-.07.34-.07.1,0,.12.08.12.27,0,.27-.05,1.17-.05,1.49,0,.13-.04.21-.11.21-.1,0-.13-.06-.15-.26v-.14c-.04-.34-.39-.69-1.53-.72l-1.62-.04v5.28c0,1.19,0,2.21.06,2.76.05.36.12.65.51.7.17.03.47.06.66.06.14,0,.21.04.21.09,0,.1-.1.13-.25.13-.86,0-1.67-.04-2.03-.04-.3,0-1.11.04-1.64.04-.16,0-.25-.04-.25-.13,0-.05.05-.09.21-.09.19,0,.35-.03.45-.06.27-.05.34-.34.38-.71.06-.55.06-1.56.06-2.75v-5.28Z"/>
      <path class="cls-2" d="M87.56,92.34l-1.93.05c-.74.03-1.05.09-1.24.38-.13.2-.2.35-.22.45-.05.11-.07.15-.15.15-.09,0-.12-.06-.12-.21,0-.19.25-1.38.28-1.47.04-.17.08-.24.16-.24.09,0,.23.13.55.16.37.03.86.06,1.29.06h5.1c.42,0,.71-.04.9-.06.19-.05.29-.07.34-.07.09,0,.09.08.09.27,0,.27-.03,1.17-.03,1.49,0,.13-.04.21-.11.21-.1,0-.13-.06-.15-.26v-.14c-.03-.34-.37-.69-1.53-.72l-1.62-.04v5.28c0,1.19,0,2.21.07,2.76.03.36.1.65.5.7.18.03.47.06.66.06.14,0,.21.04.21.09,0,.1-.11.13-.25.13-.86,0-1.68-.04-2.03-.04-.3,0-1.1.04-1.62.04-.17,0-.26-.04-.26-.13,0-.05.05-.09.21-.09.19,0,.34-.03.45-.06.26-.05.34-.34.38-.71.07-.55.07-1.56.07-2.75v-5.28Z"/>
      <path class="cls-2" d="M111.53,103.11c1.27,0,2.32,1.01,2.36,2.28.04,1.32-1.06,2.47-2.37,2.47s-2.37-1.13-2.35-2.42c.02-1.29,1.07-2.33,2.36-2.33M111.57,103.46c-1.1,0-2.03.89-2.04,2,0,1.1.88,2.06,1.99,2.07,1.13,0,2.09-.99,2.04-2.13-.04-1.08-.91-1.93-1.99-1.94M111.62,104.16c.19,0,.85.03.86.74.01.41-.18.58-.46.69l.46,1.05h-.42l-.4-1.02h-.6v1.02h-.37v-2.49h.93ZM111.04,105.3h.54c.13,0,.53.03.53-.41,0-.27-.26-.37-.49-.37h-.58v.78Z"/>
    </g>
  </g>
</svg>