<?xml version="1.0" encoding="UTF-8"?>
<svg id="Layer_2" data-name="Layer 2" xmlns="http://www.w3.org/2000/svg" xmlns:xlink="http://www.w3.org/1999/xlink" viewBox="0 0 296.08 161.8">
  <defs>
    <style>
      .cls-1 {
        fill: none;
      }

      .cls-1, .cls-2, .cls-3 {
        stroke-width: 0px;
      }

      .cls-4 {
        clip-path: url(#clippath-1);
      }

      .cls-5 {
        clip-path: url(#clippath);
      }

      .cls-2 {
        fill: #5f696f;
      }

      .cls-3 {
        fill: #b3aea3;
      }
    </style>
    <clipPath id="clippath">
      <rect class="cls-1" x="0" width="296.08" height="161.8"/>
    </clipPath>
    <clipPath id="clippath-1">
      <rect class="cls-1" x="0" width="296.08" height="161.8"/>
    </clipPath>
  </defs>
  <g id="Layer_1-2" data-name="Layer 1">
    <path class="cls-3" d="M75.77,1.52l50.47,109.06H25.3L75.77,1.52ZM74.47.7L0,161.1h1.79l22.91-49.33h102.13l22.91,49.33h1.79L77.07.7h-2.6Z"/>
    <g class="cls-5">
      <path class="cls-3" d="M292.58,141.45c-13.94,12.71-31.66,19.15-52.7,19.15-15.03,0-28.87-3.53-41.13-10.5-12.28-6.97-22.08-16.65-29.12-28.77-7.05-12.11-10.62-25.72-10.62-40.44s3.57-28.33,10.62-40.44c7.04-12.11,16.84-21.79,29.12-28.77,12.27-6.96,26.11-10.5,41.13-10.5,21.19,0,38.91,6.36,52.7,18.92l.71-.83c-6.45-6.15-14.18-10.89-23-14.12C260.94,1.74,250.7,0,239.88,0,224.5,0,210.37,3.55,197.89,10.55c-12.46,6.99-22.41,16.74-29.55,28.97-7.14,12.23-10.77,26.15-10.77,41.38s3.62,29.15,10.77,41.38c7.14,12.24,17.08,21.99,29.55,28.97h0c12.47,7,26.6,10.55,41.99,10.55,10.67,0,20.86-1.77,30.29-5.28,8.9-3.3,16.67-8.09,23.12-14.24l-.71-.83Z"/>
    </g>
    <polygon class="cls-2" points="219.39 81.18 215.99 84.29 215.99 87.99 215.22 87.99 215.22 70.62 215.99 70.62 215.99 83.35 224.23 75.84 225.26 75.84 220 80.71 225.8 87.99 224.82 87.99 219.39 81.18"/>
    <g class="cls-4">
      <path class="cls-2" d="M228.57,75.84h.77v12.15h-.77v-12.15ZM228.17,71.9c0-.42.35-.77.77-.77s.77.35.77.75c0,.42-.35.77-.77.77s-.77-.35-.77-.75"/>
      <path class="cls-2" d="M240.28,87.22c-.59.56-1.55.84-2.44.84-2.01,0-3.09-1.22-3.09-3.11v-8.43h-2.3v-.68h2.3v-2.67h.77v2.67h4.01v.68h-4.01v8.31c0,1.64.82,2.55,2.39,2.55.75,0,1.45-.26,1.97-.73l.4.56Z"/>
      <path class="cls-2" d="M241.87,81.9c0-3.63,2.55-6.16,6.04-6.16,1.83,0,3.47.7,4.5,2.08l-.59.49c-.91-1.26-2.34-1.85-3.91-1.85-3.02,0-5.27,2.2-5.27,5.43s2.25,5.46,5.27,5.46c1.57,0,3-.59,3.91-1.85l.59.47c-1.03,1.38-2.67,2.08-4.5,2.08-3.49,0-6.04-2.53-6.04-6.16"/>
      <path class="cls-2" d="M266.53,80.85v7.14h-.77v-7.1c0-2.9-1.55-4.43-4.19-4.43-3.04,0-4.89,1.97-4.89,4.96v6.56h-.77v-17.38h.77v8.12c.8-1.83,2.53-3,4.96-3,2.97,0,4.89,1.76,4.89,5.1"/>
      <path class="cls-2" d="M271,81.39h9.9c-.19-2.86-2.22-4.94-4.96-4.94s-4.78,2.08-4.94,4.94M281.63,82.02h-10.66c.05,3.16,2.32,5.34,5.41,5.34,1.59,0,3.09-.59,4.03-1.8l.49.51c-1.1,1.31-2.74,1.99-4.52,1.99-3.58,0-6.16-2.55-6.16-6.16s2.43-6.16,5.71-6.16,5.69,2.51,5.69,6.06v.21Z"/>
      <path class="cls-2" d="M296.08,80.85v7.14h-.77v-7.1c0-2.9-1.55-4.43-4.19-4.43-3.04,0-4.89,1.97-4.89,4.96v6.56h-.77v-12.15h.75v2.97c.77-1.87,2.53-3.07,4.99-3.07,2.97,0,4.89,1.76,4.89,5.1"/>
    </g>
  </g>
</svg>